<svg xmlns="http://www.w3.org/2000/svg" viewBox="0 0 40 40">
  <g>
    <polygon points="20 5.1 19.52 6.58 17.94 6.58 19.22 7.5 18.73 9 20 8.08 21.27 9 20.78 7.5 22.06 6.58 20.48 6.58 20 5.1"/>
    <polygon points="20.48 32.48 20 31 19.52 32.48 17.94 32.48 19.22 33.41 18.73 34.9 20 33.98 21.27 34.9 20.78 33.41 22.06 32.48 20.48 32.48"/>
    <polygon points="7.04 21.02 8.32 21.95 7.84 20.46 9.1 19.54 7.54 19.54 7.04 18.04 6.56 19.54 5 19.54 6.26 20.46 5.78 21.95 7.04 21.02"/>
    <polygon points="13.52 6.83 13.04 8.32 11.47 8.32 12.74 9.23 12.26 10.73 13.52 9.81 14.8 10.73 14.3 9.23 15.58 8.32 14.02 8.32 13.52 6.83"/>
    <polygon points="8.79 11.56 8.3 13.06 6.73 13.06 8.01 13.98 7.51 15.47 8.79 14.56 10.05 15.47 9.57 13.98 10.84 13.06 9.27 13.06 8.79 11.56"/>
    <polygon points="9.27 26.02 8.79 24.52 8.3 26.02 6.73 26.02 8.01 26.93 7.51 28.42 8.79 27.5 10.05 28.42 9.57 26.93 10.84 26.02 9.27 26.02"/>
    <polygon points="14.02 30.75 13.52 29.26 13.04 30.75 11.47 30.75 12.74 31.68 12.26 33.16 13.52 32.25 14.8 33.16 14.3 31.68 15.58 30.75 14.02 30.75"/>
    <polygon points="35 19.54 33.44 19.54 32.96 18.04 32.46 19.54 30.9 19.54 32.16 20.46 31.68 21.95 32.96 21.02 34.22 21.95 33.74 20.46 35 19.54"/>
    <polygon points="26.48 6.83 25.98 8.32 24.42 8.32 25.7 9.23 25.2 10.73 26.48 9.81 27.74 10.73 27.26 9.23 28.53 8.32 26.96 8.32 26.48 6.83"/>
    <polygon points="30.43 13.98 29.95 15.47 31.21 14.56 32.49 15.47 32.01 13.98 33.27 13.06 31.7 13.06 31.21 11.56 30.73 13.06 29.16 13.06 30.43 13.98"/>
    <polygon points="31.7 26.02 31.21 24.52 30.73 26.02 29.16 26.02 30.43 26.93 29.95 28.42 31.21 27.5 32.49 28.42 32.01 26.93 33.27 26.02 31.7 26.02"/>
    <polygon points="26.96 30.75 26.48 29.26 25.98 30.75 24.42 30.75 25.7 31.68 25.2 33.16 26.48 32.25 27.74 33.16 27.26 31.68 28.53 30.75 26.96 30.75"/>
  </g>
</svg>
