<svg xmlns="http://www.w3.org/2000/svg" viewBox="0 0 200 100">
  <g>
    <g>
      <g>
        <g>
          <polygon points="101.67 59.59 97.59 59.59 100.14 43.92 104.22 43.92 101.67 59.59" fill="#222"/>
          <path d="M126.25,59.59H130l-3.27-15.67h-3.28a1.87,1.87,0,0,0-1.88,1.17l-6.08,14.5h4.25l.85-2.32h5.19Zm-4.49-5.54,2.15-5.86,1.2,5.86Z" fill="#222"/>
          <path d="M115.8,47.69l.59-3.36a11.71,11.71,0,0,0-3.67-.69c-2,0-6.84.89-6.84,5.19,0,4.05,5.65,4.1,5.65,6.23s-5.06,1.74-6.73.4L104.19,59a11.46,11.46,0,0,0,4.6.88c2.79,0,7-1.44,7-5.36,0-4.08-5.69-4.45-5.69-6.23S114.06,46.73,115.8,47.69Z" fill="#222"/>
        </g>
        <path d="M89.81,52.38l-1.37-7a1.75,1.75,0,0,0-1.93-1.42H80.08l-.08.27a15.84,15.84,0,0,1,6.06,3A12.18,12.18,0,0,1,89.81,52.38Z" fill="#222" opacity="0.6"/>
      </g>
      <path d="M94.16,43.92,90.27,54.7l-.46-2.32h0a12.18,12.18,0,0,0-3.75-5.15A15.38,15.38,0,0,0,84.27,46l3.54,13.61h4.25l6.49-15.67Z" fill="#222"/>
    </g>
    <g>
      <path d="M70,46.26a4.88,4.88,0,0,0-5-4.8H46.92v9.62H65A4.89,4.89,0,0,0,70,46.26Z" fill="#222"/>
      <path d="M70,57.17a4.88,4.88,0,0,0-5-4.8H46.92V62H65A4.89,4.89,0,0,0,70,57.17Z" fill="#222"/>
      <path d="M33.27,52.36V51.08h13.3v-.5a9.06,9.06,0,0,0-9.06-9.06H29.06A9.06,9.06,0,0,0,20,50.58V53a9.06,9.06,0,0,0,9.06,9.06h8.45A9.06,9.06,0,0,0,46.57,53v-.63Z" fill="#222"/>
    </g>
    <g>
      <path d="M156.07,49.91A11.91,11.91,0,0,1,160,41.05a12,12,0,1,0,0,17.73A11.92,11.92,0,0,1,156.07,49.91Z" fill="#222"/>
      <path d="M168,38a11.89,11.89,0,0,0-8,3.1,12,12,0,0,1,0,17.73A12,12,0,1,0,168,38Z" fill="#222" opacity="0.6"/>
      <ellipse cx="160" cy="49.91" rx="3.93" ry="8.87" fill="#222" opacity="0.8"/>
    </g>
  </g>
</svg>
