<svg xmlns="http://www.w3.org/2000/svg" viewBox="0 0 200 100">
  <g>
    <path d="M144.53,38.94h-9.06A1.28,1.28,0,0,0,134.22,40l-3.66,23.24a.75.75,0,0,0,.74.88H136a.87.87,0,0,0,.87-.75l1-6.59a1.27,1.27,0,0,1,1.25-1.06H142c6,0,9.41-2.89,10.31-8.62.41-2.5,0-4.47-1.15-5.85s-3.58-2.32-6.61-2.32m1.05,8.49c-.5,3.26-3,3.26-5.39,3.26h-1.36l.95-6.08a.76.76,0,0,1,.75-.63h.63c1.63,0,3.18,0,4,.93a3,3,0,0,1,.44,2.52" fill="#222" opacity="0.6"/>
    <path d="M79.88,38.94H70.81A1.26,1.26,0,0,0,69.57,40L65.9,63.25a.76.76,0,0,0,.75.88H71a1.26,1.26,0,0,0,1.24-1.07l1-6.27a1.26,1.26,0,0,1,1.24-1.06h2.87c6,0,9.42-2.89,10.32-8.62.4-2.5,0-4.47-1.16-5.85s-3.57-2.32-6.6-2.32m1,8.49c-.49,3.26-3,3.26-5.38,3.26H74.17l1-6.08a.75.75,0,0,1,.75-.63h.62c1.64,0,3.18,0,4,.93a3,3,0,0,1,.44,2.52" fill="#222"/>
    <path d="M107,47.33h-4.34a.76.76,0,0,0-.75.64l-.19,1.21-.3-.44c-.94-1.36-3-1.82-5.13-1.82a10,10,0,0,0-9.69,8.73,8.21,8.21,0,0,0,1.62,6.67,6.78,6.78,0,0,0,5.47,2.21,8.3,8.3,0,0,0,6-2.48l-.19,1.2a.76.76,0,0,0,.75.88h3.91a1.26,1.26,0,0,0,1.24-1.07l2.35-14.86a.75.75,0,0,0-.75-.87m-6,8.45A4.84,4.84,0,0,1,96,59.92a3.36,3.36,0,0,1-3.59-4.22,4.86,4.86,0,0,1,4.86-4.17,3.66,3.66,0,0,1,2.89,1.18,3.72,3.72,0,0,1,.74,3.07" fill="#222"/>
    <path d="M171.62,47.33h-4.34a.75.75,0,0,0-.74.64l-.19,1.21-.31-.44c-.94-1.36-3-1.82-5.12-1.82a10,10,0,0,0-9.69,8.73,8.17,8.17,0,0,0,1.61,6.67,6.81,6.81,0,0,0,5.47,2.21,8.31,8.31,0,0,0,6-2.48l-.19,1.2a.75.75,0,0,0,.74.88h3.91A1.25,1.25,0,0,0,170,63.06l2.35-14.86a.75.75,0,0,0-.75-.87m-6,8.45a4.84,4.84,0,0,1-4.9,4.14,3.67,3.67,0,0,1-2.92-1.17,3.71,3.71,0,0,1-.68-3A4.86,4.86,0,0,1,162,51.53a3.66,3.66,0,0,1,2.89,1.18,3.76,3.76,0,0,1,.74,3.07" fill="#222" opacity="0.6"/>
    <path d="M130.09,47.33h-4.36a1.29,1.29,0,0,0-1,.55l-6,8.87-2.55-8.52a1.28,1.28,0,0,0-1.21-.9h-4.29a.76.76,0,0,0-.72,1l4.81,14.1-4.52,6.38a.75.75,0,0,0,.62,1.19h4.35a1.25,1.25,0,0,0,1-.54l14.51-20.94a.76.76,0,0,0-.62-1.19" fill="#222"/>
    <path d="M176.74,39.58,173,63.25a.76.76,0,0,0,.75.88h3.74a1.25,1.25,0,0,0,1.24-1.07l3.67-23.24a.75.75,0,0,0-.74-.87h-4.19a.76.76,0,0,0-.75.63" fill="#222" opacity="0.6"/>
    <path d="M48.12,40.16c.49-3.11,0-5.23-1.69-7.14-1.85-2.11-5.2-3-9.48-3H24.52a1.78,1.78,0,0,0-1.76,1.5L17.58,64.33a1.07,1.07,0,0,0,1.06,1.23h7.67l-.53,3.36A.93.93,0,0,0,26.7,70h6.47a1.56,1.56,0,0,0,1.54-1.31l.06-.33L36,60.63l.08-.43a1.56,1.56,0,0,1,1.54-1.31h1c6.26,0,11.17-2.55,12.6-9.91.6-3.08.29-5.65-1.29-7.45a6.21,6.21,0,0,0-1.77-1.37" fill="#222" opacity="0.6"/>
    <path d="M48.12,40.16c.49-3.11,0-5.23-1.69-7.14-1.85-2.11-5.2-3-9.48-3H24.52a1.78,1.78,0,0,0-1.76,1.5L17.58,64.33a1.07,1.07,0,0,0,1.06,1.23h7.67l1.93-12.22-.06.38a1.77,1.77,0,0,1,1.75-1.5h3.65c7.16,0,12.77-2.91,14.41-11.33,0-.25.09-.49.13-.73" fill="#222" opacity="0.6"/>
    <path d="M30.31,40.2A1.56,1.56,0,0,1,31.18,39a1.5,1.5,0,0,1,.67-.15h9.74a21.48,21.48,0,0,1,3.22.23l.82.16.77.2.37.11a9.12,9.12,0,0,1,1.35.57c.49-3.11,0-5.23-1.69-7.14-1.85-2.12-5.2-3-9.48-3H24.52a1.78,1.78,0,0,0-1.76,1.5L17.58,64.33a1.07,1.07,0,0,0,1.06,1.23h7.67l1.93-12.22Z" fill="#222"/>
  </g>
</svg>
