<svg xmlns="http://www.w3.org/2000/svg" viewBox="0 0 40 40">
  <line x1="10.55" y1="12.05" x2="9.55" y2="11.05" fill="none" stroke="#000" stroke-miterlimit="10" stroke-width="1.6"/>
  <g>
    <circle cx="20" cy="21.5" r="13.36" fill="none" stroke="#000" stroke-miterlimit="10" stroke-width="1.6"/>
    <line x1="20" y1="8.14" x2="20" y2="5.14" fill="none" stroke="#000" stroke-miterlimit="10" stroke-width="1.6"/>
    <line x1="18" y1="5.14" x2="22" y2="5.14" fill="none" stroke="#000" stroke-miterlimit="10" stroke-width="1.6"/>
    <line x1="29.55" y1="12.05" x2="30.55" y2="11.05" fill="none" stroke="#000" stroke-miterlimit="10" stroke-width="1.6"/>
    <g>
      <path d="M14,26.42H12.59V19.57l-2.09.71V19.09l3.33-1.23H14Z"/>
      <path d="M18,21.51h.87a1.6,1.6,0,0,0,1-.34,1.2,1.2,0,0,0,.38-1,1.28,1.28,0,0,0-.32-.94,1.24,1.24,0,0,0-1-.34,1.35,1.35,0,0,0-.94.33,1.09,1.09,0,0,0-.37.86H16.28a2.18,2.18,0,0,1,.35-1.19,2.34,2.34,0,0,1,1-.84,3.23,3.23,0,0,1,1.4-.3,2.94,2.94,0,0,1,2,.64,2.27,2.27,0,0,1,.73,1.78,1.77,1.77,0,0,1-.37,1.08,2.24,2.24,0,0,1-.95.77,2.08,2.08,0,0,1,1.07.75A2.06,2.06,0,0,1,21.86,24a2.27,2.27,0,0,1-.79,1.83,3,3,0,0,1-2.07.68,3.05,3.05,0,0,1-2-.65,2.15,2.15,0,0,1-.79-1.75h1.42a1.19,1.19,0,0,0,.38.91,1.41,1.41,0,0,0,1,.36,1.45,1.45,0,0,0,1-.36A1.54,1.54,0,0,0,20,23a1.65,1.65,0,0,0-1.18-.37H18Z"/>
      <path d="M29.6,26.42H28.12V22.64H24.31v3.78H22.82V17.89h1.49v3.55h3.81V17.89H29.6Z"/>
    </g>
  </g>
</svg>
