<svg xmlns="http://www.w3.org/2000/svg" viewBox="0 0 40 40">
  <g>
    <path d="M19.79,5.49l3.2,3,.06.05,2.72,1.26,0,0,5.09,1.41-.53,4.45-.68.49L28,18.92l.29.33.5,0,.7,1.5-.33.75.68.92v.48l-.62.69.45.47.16.59s.1,1.18.1,1.18l1.32.14.32.63-.49,1.08-3.15,2-4.68-1.23-2,1.8,0,1.61L19.08,32l-2.87-1.36-.57.4-2.5-.2-2.69-2,.67-.89.62-6.26-1.08-2.29L10,18.06v-1l-4.9-2.36-.18-2.09,3.2-.74,1,.93,2.53-.33-.78-2.94L12,9.44a5.43,5.43,0,0,0,.38,1.06l1.87.35.89-.42L15,9.52l2.71-1.39L17.92,6Z" fill="none" stroke="#000" stroke-miterlimit="10" stroke-width="1.6"/>
    <polygon points="34.14 34.51 35.09 32.22 34.84 30.12 34.36 30.55 33.55 30.41 32.86 31.8 33.43 33.94 34.14 34.51" fill="none" stroke="#000" stroke-miterlimit="10" stroke-width="1.6"/>
  </g>
</svg>
