<svg xmlns="http://www.w3.org/2000/svg" viewBox="0 0 40 40">
  <g>
    <path d="M34.71,5.29c-1-1-4.41.81-5.4,1.8l-16,16c-1.07,1.07-5.75,7.21-4.68,8.28s7.21-3.61,8.28-4.68l16-16C33.9,9.7,35.7,6.28,34.71,5.29Z" fill="none" stroke="#000" stroke-miterlimit="10" stroke-width="1.6"/>
    <polyline points="20.89 22.71 24.57 26.39 28.67 34.1 30.5 34.07 26.98 16.62" fill="none" stroke="#000" stroke-miterlimit="10" stroke-width="1.6"/>
    <polyline points="23.37 13.02 5.93 9.5 5.9 11.33 13.61 15.43 17.29 19.11" fill="none" stroke="#000" stroke-miterlimit="10" stroke-width="1.6"/>
    <polyline points="15.8 27.8 16.64 34.21 14.9 35 12.07 30.28" fill="none" stroke="#000" stroke-miterlimit="10" stroke-width="1.6"/>
    <polyline points="12.2 24.2 5.79 23.36 5 25.1 9.72 27.93" fill="none" stroke="#000" stroke-miterlimit="10" stroke-width="1.6"/>
  </g>
</svg>
